<?xml version="1.0"?>
<!DOCTYPE svg PUBLIC "-//W3C//DTD SVG 1.1//EN" "http://www.w3.org/Graphics/SVG/1.1/DTD/svg11.dtd">
<svg width="189.72mm" height="179.72mm" viewBox="0 0 189.72 179.72" xmlns="http://www.w3.org/2000/svg" version="1.1">
<g id="bottom_panel_tab" transform="translate(94.860000,89.860000) scale(1,-1)">
<path id="bottom_panel_tab_f0000"  d="M -93.0 -47.4 L -93.0 -88.0 L -93.0 -88.0 L -93.0 -47.4 L -93.0 -47.4 Z " stroke="#191919" stroke-width="0.35 px" style="stroke-width:0.35;stroke-miterlimit:4;stroke-dasharray:none;stroke-linecap:square;fill:#cccccc;fill-opacity:1.0;fill-rule: evenodd"/>
<path id="bottom_panel_tab_f0001"  d="M -51.400000000000006 -88.0 L -93.0 -88.0 L -93.0 -47.4 L -90.24141875280735 -47.400000000000006 A 0.213333 0.213333 0 0 1 -89.8433 -47.2933A 0.213333 0.213333 0 0 1 -89.95 -47.1086L -89.95 -37.89141875280735 A 0.213333 0.213333 0 0 1 -89.8433 -37.7067A 0.213333 0.213333 0 0 1 -90.2414 -37.6L -93.0 -37.6 L -93.0 37.599999999999994 L -90.24141875280735 37.599999999999994 A 0.213333 0.213333 0 0 1 -89.8433 37.7067A 0.213333 0.213333 0 0 1 -89.95 37.8914L -89.95 47.10858124719265 A 0.213333 0.213333 0 0 1 -89.8433 47.2933A 0.213333 0.213333 0 0 1 -90.2414 47.4L -93.0 47.4 L -93.0 88.0 L -51.4 88.0 L -51.400000000000006 85.24141875280735 A 0.213333 0.213333 0 0 1 -51.2933 84.8433A 0.213333 0.213333 0 0 1 -51.1086 84.95L -41.89141875280735 84.95 A 0.213333 0.213333 0 0 1 -41.7067 84.8433A 0.213333 0.213333 0 0 1 -41.6 85.2414L -41.6 88.0 L 41.599999999999994 88.0 L 41.599999999999994 85.24141875280735 A 0.213333 0.213333 0 0 1 41.7067 84.8433A 0.213333 0.213333 0 0 1 41.8914 84.95L 51.10858124719265 84.95 A 0.213333 0.213333 0 0 1 51.2933 84.8433A 0.213333 0.213333 0 0 1 51.4 85.2414L 51.4 88.0 L 93.0 88.0 L 93.0 47.4 L 90.24141875280735 47.4 A 0.213333 0.213333 0 1 1 89.95 47.1086L 89.95 37.891418752807354 A 0.213333 0.213333 0 1 1 90.2414 37.6L 93.0 37.6 L 93.0 -37.599999999999994 L 90.24141875280735 -37.6 A 0.213333 0.213333 0 1 1 89.95 -37.8914L 89.95 -47.108581247192646 A 0.213333 0.213333 0 1 1 90.2414 -47.4L 93.0 -47.400000000000006 L 93.0 -88.0 L 51.4 -88.0 L 51.4 -85.24141875280735 A 0.213333 0.213333 0 1 1 51.1086 -84.95L 41.891418752807354 -84.95 A 0.213333 0.213333 0 1 1 41.6 -85.2414L 41.6 -88.0 L -41.599999999999994 -88.0 L -41.6 -85.24141875280735 A 0.213333 0.213333 0 1 1 -41.8914 -84.95L -51.108581247192646 -84.95 A 0.213333 0.213333 0 1 1 -51.4 -85.2414L -51.400000000000006 -88.0 Z " stroke="#191919" stroke-width="0.35 px" style="stroke-width:0.35;stroke-miterlimit:4;stroke-dasharray:none;stroke-linecap:square;fill:#cccccc;fill-opacity:1.0;fill-rule: evenodd"/>
<path id="bottom_panel_tab_f0002"  d="M -90.24141875280735 -47.4 L -93.0 -47.4 L -93.0 -47.4 L -90.24141875280735 -47.400000000000006 L -90.24141875280735 -47.4 Z " stroke="#191919" stroke-width="0.35 px" style="stroke-width:0.35;stroke-miterlimit:4;stroke-dasharray:none;stroke-linecap:square;fill:#cccccc;fill-opacity:1.0;fill-rule: evenodd"/>
<path id="bottom_panel_tab_f0003"  d="M -90.24141875280735 -47.400000000000006 A 0.213333 0.213333 0 0 1 -89.8433 -47.2933A 0.213333 0.213333 0 0 1 -89.95 -47.1086L -89.95 -37.89141875280735 A 0.213333 0.213333 0 0 1 -89.8433 -37.7067A 0.213333 0.213333 0 0 1 -90.2414 -37.6L -93.0 -37.6 L -93.0 37.599999999999994 L -90.24141875280735 37.599999999999994 A 0.213333 0.213333 0 0 1 -89.8433 37.7067A 0.213333 0.213333 0 0 1 -89.95 37.8914L -89.95 47.10858124719265 A 0.213333 0.213333 0 0 1 -89.8433 47.2933A 0.213333 0.213333 0 0 1 -90.2414 47.4L -93.0 47.4 L -93.0 88.0 L -51.4 88.0 L -51.400000000000006 85.24141875280735 A 0.213333 0.213333 0 0 1 -51.2933 84.8433A 0.213333 0.213333 0 0 1 -51.1086 84.95L -41.89141875280735 84.95 A 0.213333 0.213333 0 0 1 -41.7067 84.8433A 0.213333 0.213333 0 0 1 -41.6 85.2414L -41.6 88.0 L 41.599999999999994 88.0 L 41.599999999999994 85.24141875280735 A 0.213333 0.213333 0 0 1 41.7067 84.8433A 0.213333 0.213333 0 0 1 41.8914 84.95L 51.10858124719265 84.95 A 0.213333 0.213333 0 0 1 51.2933 84.8433A 0.213333 0.213333 0 0 1 51.4 85.2414L 51.4 88.0 L 93.0 88.0 L 93.0 47.4 L 90.24141875280735 47.4 A 0.213333 0.213333 0 1 1 89.95 47.1086L 89.95 37.891418752807354 A 0.213333 0.213333 0 1 1 90.2414 37.6L 93.0 37.6 L 93.0 -37.599999999999994 L 90.24141875280735 -37.6 A 0.213333 0.213333 0 1 1 89.95 -37.8914L 89.95 -47.108581247192646 A 0.213333 0.213333 0 1 1 90.2414 -47.4L 93.0 -47.400000000000006 L 93.0 -88.0 L 51.4 -88.0 L 51.4 -85.24141875280735 A 0.213333 0.213333 0 1 1 51.1086 -84.95L 41.891418752807354 -84.95 A 0.213333 0.213333 0 1 1 41.6 -85.2414L 41.6 -88.0 L -41.599999999999994 -88.0 L -41.6 -85.24141875280735 A 0.213333 0.213333 0 1 1 -41.8914 -84.95L -51.108581247192646 -84.95 A 0.213333 0.213333 0 1 1 -51.4 -85.2414L -51.400000000000006 -88.0 L -93.0 -88.0 L -93.0 -47.4 L -90.24141875280735 -47.400000000000006 Z " stroke="#191919" stroke-width="0.35 px" style="stroke-width:0.35;stroke-miterlimit:4;stroke-dasharray:none;stroke-linecap:square;fill:#cccccc;fill-opacity:1.0;fill-rule: evenodd"/>
<path id="bottom_panel_tab_f0004"  d="M -93.0 -88.0 L -51.400000000000006 -88.0 L -51.400000000000006 -88.0 L -93.0 -88.0 L -93.0 -88.0 Z " stroke="#191919" stroke-width="0.35 px" style="stroke-width:0.35;stroke-miterlimit:4;stroke-dasharray:none;stroke-linecap:square;fill:#cccccc;fill-opacity:1.0;fill-rule: evenodd"/>
<path id="bottom_panel_tab_f0005"  d="M -51.4 -88.0 L -51.4 -85.24141875280735 L -51.39999999999999 -85.24141875280735 L -51.400000000000006 -88.0 L -51.400000000000006 -88.0 Z " stroke="#191919" stroke-width="0.35 px" style="stroke-width:0.35;stroke-miterlimit:4;stroke-dasharray:none;stroke-linecap:square;fill:#cccccc;fill-opacity:1.0;fill-rule: evenodd"/>
<path id="bottom_panel_tab_f0006"  d="M -51.39999999999999 -85.24141875280735 L -51.39999999999999 -85.24141875280735 A 0.213333 0.213333 0 1 0 -51.1086 -84.95L -51.108581247192646 -84.95 A 0.213333 0.213333 0 1 1 -51.4 -85.2414Z " stroke="#191919" stroke-width="0.35 px" style="stroke-width:0.35;stroke-miterlimit:4;stroke-dasharray:none;stroke-linecap:square;fill:#cccccc;fill-opacity:1.0;fill-rule: evenodd"/>
<path id="bottom_panel_tab_f0007"  d="M -41.89141875280735 -84.95 L -51.108581247192646 -84.95 L -51.108581247192646 -84.95 L -41.89141875280735 -84.95 L -41.89141875280735 -84.95 Z " stroke="#191919" stroke-width="0.35 px" style="stroke-width:0.35;stroke-miterlimit:4;stroke-dasharray:none;stroke-linecap:square;fill:#cccccc;fill-opacity:1.0;fill-rule: evenodd"/>
<path id="bottom_panel_tab_f0008"  d="M -41.89141875280735 -84.95 L -41.89141875280735 -84.95 A 0.213333 0.213333 0 1 0 -41.6 -85.2414L -41.6 -85.24141875280735 A 0.213333 0.213333 0 1 1 -41.8914 -84.95Z " stroke="#191919" stroke-width="0.35 px" style="stroke-width:0.35;stroke-miterlimit:4;stroke-dasharray:none;stroke-linecap:square;fill:#cccccc;fill-opacity:1.0;fill-rule: evenodd"/>
<path id="bottom_panel_tab_f0009"  d="M -41.6 -85.24141875280735 L -41.6 -85.24141875280735 L -41.599999999999994 -88.0 L -41.599999999999994 -88.0 L -41.6 -85.24141875280735 Z " stroke="#191919" stroke-width="0.35 px" style="stroke-width:0.35;stroke-miterlimit:4;stroke-dasharray:none;stroke-linecap:square;fill:#cccccc;fill-opacity:1.0;fill-rule: evenodd"/>
<path id="bottom_panel_tab_f0010"  d="M -41.599999999999994 -88.0 L 41.6 -88.0 L 41.6 -88.0 L -41.599999999999994 -88.0 L -41.599999999999994 -88.0 Z " stroke="#191919" stroke-width="0.35 px" style="stroke-width:0.35;stroke-miterlimit:4;stroke-dasharray:none;stroke-linecap:square;fill:#cccccc;fill-opacity:1.0;fill-rule: evenodd"/>
<path id="bottom_panel_tab_f0011"  d="M 41.6 -88.0 L 41.6 -85.24141875280735 L 41.60000000000001 -85.24141875280735 L 41.6 -88.0 L 41.6 -88.0 Z " stroke="#191919" stroke-width="0.35 px" style="stroke-width:0.35;stroke-miterlimit:4;stroke-dasharray:none;stroke-linecap:square;fill:#cccccc;fill-opacity:1.0;fill-rule: evenodd"/>
<path id="bottom_panel_tab_f0012"  d="M 41.60000000000001 -85.24141875280735 L 41.60000000000001 -85.24141875280735 A 0.213333 0.213333 0 1 0 41.8914 -84.95L 41.891418752807354 -84.95 A 0.213333 0.213333 0 1 1 41.6 -85.2414Z " stroke="#191919" stroke-width="0.35 px" style="stroke-width:0.35;stroke-miterlimit:4;stroke-dasharray:none;stroke-linecap:square;fill:#cccccc;fill-opacity:1.0;fill-rule: evenodd"/>
<path id="bottom_panel_tab_f0013"  d="M 51.10858124719265 -84.95 L 41.891418752807354 -84.95 L 41.891418752807354 -84.95 L 51.10858124719265 -84.95 L 51.10858124719265 -84.95 Z " stroke="#191919" stroke-width="0.35 px" style="stroke-width:0.35;stroke-miterlimit:4;stroke-dasharray:none;stroke-linecap:square;fill:#cccccc;fill-opacity:1.0;fill-rule: evenodd"/>
<path id="bottom_panel_tab_f0014"  d="M 51.10858124719265 -84.95 L 51.10858124719265 -84.95 A 0.213333 0.213333 0 1 0 51.4 -85.2414L 51.4 -85.24141875280735 A 0.213333 0.213333 0 1 1 51.1086 -84.95Z " stroke="#191919" stroke-width="0.35 px" style="stroke-width:0.35;stroke-miterlimit:4;stroke-dasharray:none;stroke-linecap:square;fill:#cccccc;fill-opacity:1.0;fill-rule: evenodd"/>
<path id="bottom_panel_tab_f0015"  d="M 51.4 -85.24141875280735 L 51.4 -85.24141875280735 L 51.4 -88.0 L 51.4 -88.0 L 51.4 -85.24141875280735 Z " stroke="#191919" stroke-width="0.35 px" style="stroke-width:0.35;stroke-miterlimit:4;stroke-dasharray:none;stroke-linecap:square;fill:#cccccc;fill-opacity:1.0;fill-rule: evenodd"/>
<path id="bottom_panel_tab_f0016"  d="M 51.4 -88.0 L 93.0 -88.0 L 93.0 -88.0 L 51.4 -88.0 L 51.4 -88.0 Z " stroke="#191919" stroke-width="0.35 px" style="stroke-width:0.35;stroke-miterlimit:4;stroke-dasharray:none;stroke-linecap:square;fill:#cccccc;fill-opacity:1.0;fill-rule: evenodd"/>
<path id="bottom_panel_tab_f0017"  d="M 93.0 -88.0 L 93.0 -47.400000000000006 L 93.0 -47.400000000000006 L 93.0 -88.0 L 93.0 -88.0 Z " stroke="#191919" stroke-width="0.35 px" style="stroke-width:0.35;stroke-miterlimit:4;stroke-dasharray:none;stroke-linecap:square;fill:#cccccc;fill-opacity:1.0;fill-rule: evenodd"/>
<path id="bottom_panel_tab_f0018"  d="M 93.0 -47.4 L 90.24141875280735 -47.4 L 90.24141875280735 -47.39999999999999 L 93.0 -47.400000000000006 L 93.0 -47.400000000000006 Z " stroke="#191919" stroke-width="0.35 px" style="stroke-width:0.35;stroke-miterlimit:4;stroke-dasharray:none;stroke-linecap:square;fill:#cccccc;fill-opacity:1.0;fill-rule: evenodd"/>
<path id="bottom_panel_tab_f0019"  d="M 90.24141875280735 -47.39999999999999 L 90.24141875280735 -47.39999999999999 A 0.213333 0.213333 0 1 0 89.95 -47.1086L 89.95 -47.108581247192646 A 0.213333 0.213333 0 1 1 90.2414 -47.4Z " stroke="#191919" stroke-width="0.35 px" style="stroke-width:0.35;stroke-miterlimit:4;stroke-dasharray:none;stroke-linecap:square;fill:#cccccc;fill-opacity:1.0;fill-rule: evenodd"/>
<path id="bottom_panel_tab_f0020"  d="M 89.95 -37.89141875280735 L 89.95 -47.108581247192646 L 89.95 -47.108581247192646 L 89.95 -37.89141875280735 L 89.95 -37.89141875280735 Z " stroke="#191919" stroke-width="0.35 px" style="stroke-width:0.35;stroke-miterlimit:4;stroke-dasharray:none;stroke-linecap:square;fill:#cccccc;fill-opacity:1.0;fill-rule: evenodd"/>
<path id="bottom_panel_tab_f0021"  d="M 89.95 -37.89141875280735 L 89.95 -37.89141875280735 A 0.213333 0.213333 0 1 0 90.2414 -37.6L 90.24141875280735 -37.6 A 0.213333 0.213333 0 1 1 89.95 -37.8914Z " stroke="#191919" stroke-width="0.35 px" style="stroke-width:0.35;stroke-miterlimit:4;stroke-dasharray:none;stroke-linecap:square;fill:#cccccc;fill-opacity:1.0;fill-rule: evenodd"/>
<path id="bottom_panel_tab_f0022"  d="M 90.24141875280735 -37.6 L 90.24141875280735 -37.6 L 93.0 -37.599999999999994 L 93.0 -37.599999999999994 L 90.24141875280735 -37.6 Z " stroke="#191919" stroke-width="0.35 px" style="stroke-width:0.35;stroke-miterlimit:4;stroke-dasharray:none;stroke-linecap:square;fill:#cccccc;fill-opacity:1.0;fill-rule: evenodd"/>
<path id="bottom_panel_tab_f0023"  d="M 93.0 -37.599999999999994 L 93.0 37.6 L 93.0 37.6 L 93.0 -37.599999999999994 L 93.0 -37.599999999999994 Z " stroke="#191919" stroke-width="0.35 px" style="stroke-width:0.35;stroke-miterlimit:4;stroke-dasharray:none;stroke-linecap:square;fill:#cccccc;fill-opacity:1.0;fill-rule: evenodd"/>
<path id="bottom_panel_tab_f0024"  d="M 93.0 37.6 L 90.24141875280735 37.6 L 90.24141875280735 37.60000000000001 L 93.0 37.6 L 93.0 37.6 Z " stroke="#191919" stroke-width="0.35 px" style="stroke-width:0.35;stroke-miterlimit:4;stroke-dasharray:none;stroke-linecap:square;fill:#cccccc;fill-opacity:1.0;fill-rule: evenodd"/>
<path id="bottom_panel_tab_f0025"  d="M 90.24141875280735 37.60000000000001 L 90.24141875280735 37.60000000000001 A 0.213333 0.213333 0 1 0 89.95 37.8914L 89.95 37.891418752807354 A 0.213333 0.213333 0 1 1 90.2414 37.6Z " stroke="#191919" stroke-width="0.35 px" style="stroke-width:0.35;stroke-miterlimit:4;stroke-dasharray:none;stroke-linecap:square;fill:#cccccc;fill-opacity:1.0;fill-rule: evenodd"/>
<path id="bottom_panel_tab_f0026"  d="M 89.95 47.10858124719265 L 89.95 37.891418752807354 L 89.95 37.891418752807354 L 89.95 47.10858124719265 L 89.95 47.10858124719265 Z " stroke="#191919" stroke-width="0.35 px" style="stroke-width:0.35;stroke-miterlimit:4;stroke-dasharray:none;stroke-linecap:square;fill:#cccccc;fill-opacity:1.0;fill-rule: evenodd"/>
<path id="bottom_panel_tab_f0027"  d="M 89.95 47.10858124719265 L 89.95 47.10858124719265 A 0.213333 0.213333 0 1 0 90.2414 47.4L 90.24141875280735 47.4 A 0.213333 0.213333 0 1 1 89.95 47.1086Z " stroke="#191919" stroke-width="0.35 px" style="stroke-width:0.35;stroke-miterlimit:4;stroke-dasharray:none;stroke-linecap:square;fill:#cccccc;fill-opacity:1.0;fill-rule: evenodd"/>
<path id="bottom_panel_tab_f0028"  d="M 90.24141875280735 47.4 L 90.24141875280735 47.4 L 93.0 47.4 L 93.0 47.4 L 90.24141875280735 47.4 Z " stroke="#191919" stroke-width="0.35 px" style="stroke-width:0.35;stroke-miterlimit:4;stroke-dasharray:none;stroke-linecap:square;fill:#cccccc;fill-opacity:1.0;fill-rule: evenodd"/>
<path id="bottom_panel_tab_f0029"  d="M 93.0 47.4 L 93.0 88.0 L 93.0 88.0 L 93.0 47.4 L 93.0 47.4 Z " stroke="#191919" stroke-width="0.35 px" style="stroke-width:0.35;stroke-miterlimit:4;stroke-dasharray:none;stroke-linecap:square;fill:#cccccc;fill-opacity:1.0;fill-rule: evenodd"/>
<path id="bottom_panel_tab_f0030"  d="M 93.0 88.0 L 51.400000000000006 88.0 L 51.400000000000006 88.0 L 93.0 88.0 L 93.0 88.0 Z " stroke="#191919" stroke-width="0.35 px" style="stroke-width:0.35;stroke-miterlimit:4;stroke-dasharray:none;stroke-linecap:square;fill:#cccccc;fill-opacity:1.0;fill-rule: evenodd"/>
<path id="bottom_panel_tab_f0031"  d="M 51.400000000000006 88.0 L 51.400000000000006 88.0 L 51.400000000000006 85.24141875280735 L 51.4 85.24141875280735 L 51.4 88.0 Z " stroke="#191919" stroke-width="0.35 px" style="stroke-width:0.35;stroke-miterlimit:4;stroke-dasharray:none;stroke-linecap:square;fill:#cccccc;fill-opacity:1.0;fill-rule: evenodd"/>
<path id="bottom_panel_tab_f0032"  d="M 51.400000000000006 85.24141875280735 A 0.213333 0.213333 0 0 0 51.2933 84.8433L 51.29333333333334 84.84333333333333 A 0.213333 0.213333 0 0 1 51.4 85.2414L 51.400000000000006 85.24141875280735 Z " stroke="#191919" stroke-width="0.35 px" style="stroke-width:0.35;stroke-miterlimit:4;stroke-dasharray:none;stroke-linecap:square;fill:#cccccc;fill-opacity:1.0;fill-rule: evenodd"/>
<path id="bottom_panel_tab_f0033"  d="M 51.10858124719265 84.95 L 51.10858124719265 84.95 A 0.213333 0.213333 0 0 1 51.2933 84.8433L 51.29333333333334 84.84333333333333 A 0.213333 0.213333 0 0 0 51.1086 84.95Z " stroke="#191919" stroke-width="0.35 px" style="stroke-width:0.35;stroke-miterlimit:4;stroke-dasharray:none;stroke-linecap:square;fill:#cccccc;fill-opacity:1.0;fill-rule: evenodd"/>
<path id="bottom_panel_tab_f0034"  d="M 51.10858124719265 84.95 L 51.10858124719265 84.95 L 41.891418752807354 84.95 L 41.891418752807354 84.95 L 51.10858124719265 84.95 Z " stroke="#191919" stroke-width="0.35 px" style="stroke-width:0.35;stroke-miterlimit:4;stroke-dasharray:none;stroke-linecap:square;fill:#cccccc;fill-opacity:1.0;fill-rule: evenodd"/>
<path id="bottom_panel_tab_f0035"  d="M 41.891418752807354 84.95 A 0.213333 0.213333 0 0 0 41.7067 84.8433L 41.70666666666667 84.84333333333333 A 0.213333 0.213333 0 0 1 41.8914 84.95L 41.891418752807354 84.95 Z " stroke="#191919" stroke-width="0.35 px" style="stroke-width:0.35;stroke-miterlimit:4;stroke-dasharray:none;stroke-linecap:square;fill:#cccccc;fill-opacity:1.0;fill-rule: evenodd"/>
<path id="bottom_panel_tab_f0036"  d="M 41.599999999999994 85.24141875280735 L 41.599999999999994 85.24141875280735 A 0.213333 0.213333 0 0 1 41.7067 84.8433L 41.70666666666667 84.84333333333333 A 0.213333 0.213333 0 0 0 41.6 85.2414Z " stroke="#191919" stroke-width="0.35 px" style="stroke-width:0.35;stroke-miterlimit:4;stroke-dasharray:none;stroke-linecap:square;fill:#cccccc;fill-opacity:1.0;fill-rule: evenodd"/>
<path id="bottom_panel_tab_f0037"  d="M 41.6 85.24141875280735 L 41.6 88.0 L 41.599999999999994 88.0 L 41.599999999999994 85.24141875280735 L 41.6 85.24141875280735 Z " stroke="#191919" stroke-width="0.35 px" style="stroke-width:0.35;stroke-miterlimit:4;stroke-dasharray:none;stroke-linecap:square;fill:#cccccc;fill-opacity:1.0;fill-rule: evenodd"/>
<path id="bottom_panel_tab_f0038"  d="M 41.599999999999994 88.0 L -41.6 88.0 L -41.6 88.0 L 41.599999999999994 88.0 L 41.599999999999994 88.0 Z " stroke="#191919" stroke-width="0.35 px" style="stroke-width:0.35;stroke-miterlimit:4;stroke-dasharray:none;stroke-linecap:square;fill:#cccccc;fill-opacity:1.0;fill-rule: evenodd"/>
<path id="bottom_panel_tab_f0039"  d="M -41.6 88.0 L -41.6 88.0 L -41.599999999999994 85.24141875280735 L -41.6 85.24141875280735 L -41.6 88.0 Z " stroke="#191919" stroke-width="0.35 px" style="stroke-width:0.35;stroke-miterlimit:4;stroke-dasharray:none;stroke-linecap:square;fill:#cccccc;fill-opacity:1.0;fill-rule: evenodd"/>
<path id="bottom_panel_tab_f0040"  d="M -41.599999999999994 85.24141875280735 A 0.213333 0.213333 0 0 0 -41.7067 84.8433L -41.70666666666666 84.84333333333333 A 0.213333 0.213333 0 0 1 -41.6 85.2414L -41.599999999999994 85.24141875280735 Z " stroke="#191919" stroke-width="0.35 px" style="stroke-width:0.35;stroke-miterlimit:4;stroke-dasharray:none;stroke-linecap:square;fill:#cccccc;fill-opacity:1.0;fill-rule: evenodd"/>
<path id="bottom_panel_tab_f0041"  d="M -41.89141875280735 84.95 L -41.89141875280735 84.95 A 0.213333 0.213333 0 0 1 -41.7067 84.8433L -41.70666666666666 84.84333333333333 A 0.213333 0.213333 0 0 0 -41.8914 84.95Z " stroke="#191919" stroke-width="0.35 px" style="stroke-width:0.35;stroke-miterlimit:4;stroke-dasharray:none;stroke-linecap:square;fill:#cccccc;fill-opacity:1.0;fill-rule: evenodd"/>
<path id="bottom_panel_tab_f0042"  d="M -41.89141875280735 84.95 L -41.89141875280735 84.95 L -51.108581247192646 84.95 L -51.108581247192646 84.95 L -41.89141875280735 84.95 Z " stroke="#191919" stroke-width="0.35 px" style="stroke-width:0.35;stroke-miterlimit:4;stroke-dasharray:none;stroke-linecap:square;fill:#cccccc;fill-opacity:1.0;fill-rule: evenodd"/>
<path id="bottom_panel_tab_f0043"  d="M -51.108581247192646 84.95 A 0.213333 0.213333 0 0 0 -51.2933 84.8433L -51.29333333333333 84.84333333333333 A 0.213333 0.213333 0 0 1 -51.1086 84.95L -51.108581247192646 84.95 Z " stroke="#191919" stroke-width="0.35 px" style="stroke-width:0.35;stroke-miterlimit:4;stroke-dasharray:none;stroke-linecap:square;fill:#cccccc;fill-opacity:1.0;fill-rule: evenodd"/>
<path id="bottom_panel_tab_f0044"  d="M -51.400000000000006 85.24141875280735 L -51.400000000000006 85.24141875280735 A 0.213333 0.213333 0 0 1 -51.2933 84.8433L -51.29333333333333 84.84333333333333 A 0.213333 0.213333 0 0 0 -51.4 85.2414Z " stroke="#191919" stroke-width="0.35 px" style="stroke-width:0.35;stroke-miterlimit:4;stroke-dasharray:none;stroke-linecap:square;fill:#cccccc;fill-opacity:1.0;fill-rule: evenodd"/>
<path id="bottom_panel_tab_f0045"  d="M -51.4 85.24141875280735 L -51.4 88.0 L -51.4 88.0 L -51.400000000000006 85.24141875280735 L -51.4 85.24141875280735 Z " stroke="#191919" stroke-width="0.35 px" style="stroke-width:0.35;stroke-miterlimit:4;stroke-dasharray:none;stroke-linecap:square;fill:#cccccc;fill-opacity:1.0;fill-rule: evenodd"/>
<path id="bottom_panel_tab_f0046"  d="M -51.4 88.0 L -93.0 88.0 L -93.0 88.0 L -51.4 88.0 L -51.4 88.0 Z " stroke="#191919" stroke-width="0.35 px" style="stroke-width:0.35;stroke-miterlimit:4;stroke-dasharray:none;stroke-linecap:square;fill:#cccccc;fill-opacity:1.0;fill-rule: evenodd"/>
<path id="bottom_panel_tab_f0047"  d="M -93.0 88.0 L -93.0 47.400000000000006 L -93.0 47.400000000000006 L -93.0 88.0 L -93.0 88.0 Z " stroke="#191919" stroke-width="0.35 px" style="stroke-width:0.35;stroke-miterlimit:4;stroke-dasharray:none;stroke-linecap:square;fill:#cccccc;fill-opacity:1.0;fill-rule: evenodd"/>
<path id="bottom_panel_tab_f0048"  d="M -93.0 47.400000000000006 L -93.0 47.400000000000006 L -90.24141875280735 47.400000000000006 L -90.24141875280735 47.4 L -93.0 47.4 Z " stroke="#191919" stroke-width="0.35 px" style="stroke-width:0.35;stroke-miterlimit:4;stroke-dasharray:none;stroke-linecap:square;fill:#cccccc;fill-opacity:1.0;fill-rule: evenodd"/>
<path id="bottom_panel_tab_f0049"  d="M -90.24141875280735 47.400000000000006 A 0.213333 0.213333 0 0 0 -89.8433 47.2933L -89.84333333333333 47.29333333333334 A 0.213333 0.213333 0 0 1 -90.2414 47.4L -90.24141875280735 47.400000000000006 Z " stroke="#191919" stroke-width="0.35 px" style="stroke-width:0.35;stroke-miterlimit:4;stroke-dasharray:none;stroke-linecap:square;fill:#cccccc;fill-opacity:1.0;fill-rule: evenodd"/>
<path id="bottom_panel_tab_f0050"  d="M -89.95 47.10858124719265 L -89.95 47.10858124719265 A 0.213333 0.213333 0 0 1 -89.8433 47.2933L -89.84333333333333 47.29333333333334 A 0.213333 0.213333 0 0 0 -89.95 47.1086Z " stroke="#191919" stroke-width="0.35 px" style="stroke-width:0.35;stroke-miterlimit:4;stroke-dasharray:none;stroke-linecap:square;fill:#cccccc;fill-opacity:1.0;fill-rule: evenodd"/>
<path id="bottom_panel_tab_f0051"  d="M -89.95 47.10858124719265 L -89.95 47.10858124719265 L -89.95 37.891418752807354 L -89.95 37.891418752807354 L -89.95 47.10858124719265 Z " stroke="#191919" stroke-width="0.35 px" style="stroke-width:0.35;stroke-miterlimit:4;stroke-dasharray:none;stroke-linecap:square;fill:#cccccc;fill-opacity:1.0;fill-rule: evenodd"/>
<path id="bottom_panel_tab_f0052"  d="M -89.95 37.891418752807354 A 0.213333 0.213333 0 0 0 -89.8433 37.7067L -89.84333333333333 37.70666666666667 A 0.213333 0.213333 0 0 1 -89.95 37.8914L -89.95 37.891418752807354 Z " stroke="#191919" stroke-width="0.35 px" style="stroke-width:0.35;stroke-miterlimit:4;stroke-dasharray:none;stroke-linecap:square;fill:#cccccc;fill-opacity:1.0;fill-rule: evenodd"/>
<path id="bottom_panel_tab_f0053"  d="M -90.24141875280735 37.599999999999994 L -90.24141875280735 37.599999999999994 A 0.213333 0.213333 0 0 1 -89.8433 37.7067L -89.84333333333333 37.70666666666667 A 0.213333 0.213333 0 0 0 -90.2414 37.6Z " stroke="#191919" stroke-width="0.35 px" style="stroke-width:0.35;stroke-miterlimit:4;stroke-dasharray:none;stroke-linecap:square;fill:#cccccc;fill-opacity:1.0;fill-rule: evenodd"/>
<path id="bottom_panel_tab_f0054"  d="M -90.24141875280735 37.6 L -93.0 37.6 L -93.0 37.599999999999994 L -90.24141875280735 37.599999999999994 L -90.24141875280735 37.6 Z " stroke="#191919" stroke-width="0.35 px" style="stroke-width:0.35;stroke-miterlimit:4;stroke-dasharray:none;stroke-linecap:square;fill:#cccccc;fill-opacity:1.0;fill-rule: evenodd"/>
<path id="bottom_panel_tab_f0055"  d="M -93.0 37.599999999999994 L -93.0 -37.6 L -93.0 -37.6 L -93.0 37.599999999999994 L -93.0 37.599999999999994 Z " stroke="#191919" stroke-width="0.35 px" style="stroke-width:0.35;stroke-miterlimit:4;stroke-dasharray:none;stroke-linecap:square;fill:#cccccc;fill-opacity:1.0;fill-rule: evenodd"/>
<path id="bottom_panel_tab_f0056"  d="M -93.0 -37.6 L -93.0 -37.6 L -90.24141875280735 -37.599999999999994 L -90.24141875280735 -37.6 L -93.0 -37.6 Z " stroke="#191919" stroke-width="0.35 px" style="stroke-width:0.35;stroke-miterlimit:4;stroke-dasharray:none;stroke-linecap:square;fill:#cccccc;fill-opacity:1.0;fill-rule: evenodd"/>
<path id="bottom_panel_tab_f0057"  d="M -90.24141875280735 -37.599999999999994 A 0.213333 0.213333 0 0 0 -89.8433 -37.7067L -89.84333333333333 -37.70666666666666 A 0.213333 0.213333 0 0 1 -90.2414 -37.6L -90.24141875280735 -37.599999999999994 Z " stroke="#191919" stroke-width="0.35 px" style="stroke-width:0.35;stroke-miterlimit:4;stroke-dasharray:none;stroke-linecap:square;fill:#cccccc;fill-opacity:1.0;fill-rule: evenodd"/>
<path id="bottom_panel_tab_f0058"  d="M -89.95 -37.89141875280735 L -89.95 -37.89141875280735 A 0.213333 0.213333 0 0 1 -89.8433 -37.7067L -89.84333333333333 -37.70666666666666 A 0.213333 0.213333 0 0 0 -89.95 -37.8914Z " stroke="#191919" stroke-width="0.35 px" style="stroke-width:0.35;stroke-miterlimit:4;stroke-dasharray:none;stroke-linecap:square;fill:#cccccc;fill-opacity:1.0;fill-rule: evenodd"/>
<path id="bottom_panel_tab_f0059"  d="M -89.95 -37.89141875280735 L -89.95 -37.89141875280735 L -89.95 -47.108581247192646 L -89.95 -47.108581247192646 L -89.95 -37.89141875280735 Z " stroke="#191919" stroke-width="0.35 px" style="stroke-width:0.35;stroke-miterlimit:4;stroke-dasharray:none;stroke-linecap:square;fill:#cccccc;fill-opacity:1.0;fill-rule: evenodd"/>
<path id="bottom_panel_tab_f0060"  d="M -89.95 -47.108581247192646 A 0.213333 0.213333 0 0 0 -89.8433 -47.2933L -89.84333333333333 -47.29333333333333 A 0.213333 0.213333 0 0 1 -89.95 -47.1086L -89.95 -47.108581247192646 Z " stroke="#191919" stroke-width="0.35 px" style="stroke-width:0.35;stroke-miterlimit:4;stroke-dasharray:none;stroke-linecap:square;fill:#cccccc;fill-opacity:1.0;fill-rule: evenodd"/>
<path id="bottom_panel_tab_f0061"  d="M -90.24141875280735 -47.400000000000006 L -90.24141875280735 -47.400000000000006 A 0.213333 0.213333 0 0 1 -89.8433 -47.2933L -89.84333333333333 -47.29333333333333 A 0.213333 0.213333 0 0 0 -90.2414 -47.4Z " stroke="#191919" stroke-width="0.35 px" style="stroke-width:0.35;stroke-miterlimit:4;stroke-dasharray:none;stroke-linecap:square;fill:#cccccc;fill-opacity:1.0;fill-rule: evenodd"/>
<title>b'bottom_panel_tab'</title>
</g>
</svg>